<mxfile host="app.diagrams.net" modified="2022-06-08T07:28:26.277Z" agent="5.0 (Windows NT 10.0; Win64; x64) AppleWebKit/537.36 (KHTML, like Gecko) Chrome/102.0.5005.63 Safari/537.36" etag="iY1R5AG5-OkiNhDE2eVo" version="19.0.0" type="github">
  <diagram id="X_uQk7BK54YbEMtX285s" name="Page-1">
    <mxGraphModel dx="1422" dy="762" grid="1" gridSize="10" guides="1" tooltips="1" connect="1" arrows="1" fold="1" page="1" pageScale="1" pageWidth="1169" pageHeight="1654" math="0" shadow="0">
      <root>
        <mxCell id="0" />
        <mxCell id="1" parent="0" />
        <mxCell id="W94mFD7Sm96_-OhgsIUf-4" value="VPC" style="points=[[0,0],[0.25,0],[0.5,0],[0.75,0],[1,0],[1,0.25],[1,0.5],[1,0.75],[1,1],[0.75,1],[0.5,1],[0.25,1],[0,1],[0,0.75],[0,0.5],[0,0.25]];outlineConnect=0;gradientColor=none;html=1;whiteSpace=wrap;fontSize=12;fontStyle=0;container=1;pointerEvents=0;collapsible=0;recursiveResize=0;shape=mxgraph.aws4.group;grIcon=mxgraph.aws4.group_vpc;strokeColor=#248814;fillColor=none;verticalAlign=top;align=left;spacingLeft=30;fontColor=#AAB7B8;dashed=0;" vertex="1" parent="1">
          <mxGeometry x="40" y="41" width="880" height="549" as="geometry" />
        </mxCell>
        <mxCell id="W94mFD7Sm96_-OhgsIUf-5" value="Public subnet" style="points=[[0,0],[0.25,0],[0.5,0],[0.75,0],[1,0],[1,0.25],[1,0.5],[1,0.75],[1,1],[0.75,1],[0.5,1],[0.25,1],[0,1],[0,0.75],[0,0.5],[0,0.25]];outlineConnect=0;gradientColor=none;html=1;whiteSpace=wrap;fontSize=12;fontStyle=0;container=1;pointerEvents=0;collapsible=0;recursiveResize=0;shape=mxgraph.aws4.group;grIcon=mxgraph.aws4.group_security_group;grStroke=0;strokeColor=#248814;fillColor=#E9F3E6;verticalAlign=top;align=left;spacingLeft=30;fontColor=#248814;dashed=0;" vertex="1" parent="W94mFD7Sm96_-OhgsIUf-4">
          <mxGeometry x="30" y="29" width="820" height="491" as="geometry" />
        </mxCell>
        <mxCell id="W94mFD7Sm96_-OhgsIUf-18" style="edgeStyle=orthogonalEdgeStyle;rounded=0;orthogonalLoop=1;jettySize=auto;html=1;exitX=0.5;exitY=0;exitDx=0;exitDy=0;exitPerimeter=0;" edge="1" parent="W94mFD7Sm96_-OhgsIUf-5" source="W94mFD7Sm96_-OhgsIUf-6" target="W94mFD7Sm96_-OhgsIUf-15">
          <mxGeometry relative="1" as="geometry" />
        </mxCell>
        <mxCell id="W94mFD7Sm96_-OhgsIUf-6" value="paintbrain_master" style="sketch=0;points=[[0,0,0],[0.25,0,0],[0.5,0,0],[0.75,0,0],[1,0,0],[0,1,0],[0.25,1,0],[0.5,1,0],[0.75,1,0],[1,1,0],[0,0.25,0],[0,0.5,0],[0,0.75,0],[1,0.25,0],[1,0.5,0],[1,0.75,0]];outlineConnect=0;fontColor=#232F3E;gradientColor=#4D72F3;gradientDirection=north;fillColor=#3334B9;strokeColor=#ffffff;dashed=0;verticalLabelPosition=bottom;verticalAlign=top;align=center;html=1;fontSize=12;fontStyle=0;aspect=fixed;shape=mxgraph.aws4.resourceIcon;resIcon=mxgraph.aws4.rds;" vertex="1" parent="W94mFD7Sm96_-OhgsIUf-5">
          <mxGeometry x="186" y="320" width="78" height="78" as="geometry" />
        </mxCell>
        <mxCell id="W94mFD7Sm96_-OhgsIUf-23" style="edgeStyle=orthogonalEdgeStyle;rounded=0;orthogonalLoop=1;jettySize=auto;html=1;exitX=0;exitY=0.5;exitDx=0;exitDy=0;exitPerimeter=0;" edge="1" parent="W94mFD7Sm96_-OhgsIUf-5" source="W94mFD7Sm96_-OhgsIUf-7" target="W94mFD7Sm96_-OhgsIUf-6">
          <mxGeometry relative="1" as="geometry" />
        </mxCell>
        <mxCell id="W94mFD7Sm96_-OhgsIUf-7" value="www.paintbrain.jp" style="sketch=0;points=[[0,0,0],[0.25,0,0],[0.5,0,0],[0.75,0,0],[1,0,0],[0,1,0],[0.25,1,0],[0.5,1,0],[0.75,1,0],[1,1,0],[0,0.25,0],[0,0.5,0],[0,0.75,0],[1,0.25,0],[1,0.5,0],[1,0.75,0]];outlineConnect=0;fontColor=#232F3E;gradientColor=#F78E04;gradientDirection=north;fillColor=#D05C17;strokeColor=#ffffff;dashed=0;verticalLabelPosition=bottom;verticalAlign=top;align=center;html=1;fontSize=12;fontStyle=0;aspect=fixed;shape=mxgraph.aws4.resourceIcon;resIcon=mxgraph.aws4.ec2;" vertex="1" parent="W94mFD7Sm96_-OhgsIUf-5">
          <mxGeometry x="342" y="320" width="78" height="78" as="geometry" />
        </mxCell>
        <mxCell id="W94mFD7Sm96_-OhgsIUf-26" style="edgeStyle=orthogonalEdgeStyle;rounded=0;orthogonalLoop=1;jettySize=auto;html=1;exitX=0;exitY=0.5;exitDx=0;exitDy=0;exitPerimeter=0;entryX=1;entryY=0.5;entryDx=0;entryDy=0;entryPerimeter=0;" edge="1" parent="W94mFD7Sm96_-OhgsIUf-5" source="W94mFD7Sm96_-OhgsIUf-12" target="W94mFD7Sm96_-OhgsIUf-14">
          <mxGeometry relative="1" as="geometry" />
        </mxCell>
        <mxCell id="W94mFD7Sm96_-OhgsIUf-27" style="edgeStyle=orthogonalEdgeStyle;rounded=0;orthogonalLoop=1;jettySize=auto;html=1;exitX=0;exitY=0.5;exitDx=0;exitDy=0;exitPerimeter=0;entryX=1;entryY=0.5;entryDx=0;entryDy=0;entryPerimeter=0;" edge="1" parent="W94mFD7Sm96_-OhgsIUf-5" source="W94mFD7Sm96_-OhgsIUf-12" target="W94mFD7Sm96_-OhgsIUf-15">
          <mxGeometry relative="1" as="geometry">
            <Array as="points">
              <mxPoint x="320" y="49" />
              <mxPoint x="320" y="169" />
            </Array>
          </mxGeometry>
        </mxCell>
        <mxCell id="W94mFD7Sm96_-OhgsIUf-12" value="rize" style="sketch=0;points=[[0,0,0],[0.25,0,0],[0.5,0,0],[0.75,0,0],[1,0,0],[0,1,0],[0.25,1,0],[0.5,1,0],[0.75,1,0],[1,1,0],[0,0.25,0],[0,0.5,0],[0,0.75,0],[1,0.25,0],[1,0.5,0],[1,0.75,0]];outlineConnect=0;fontColor=#232F3E;gradientColor=#F78E04;gradientDirection=north;fillColor=#D05C17;strokeColor=#ffffff;dashed=0;verticalLabelPosition=bottom;verticalAlign=top;align=center;html=1;fontSize=12;fontStyle=0;aspect=fixed;shape=mxgraph.aws4.resourceIcon;resIcon=mxgraph.aws4.ec2;" vertex="1" parent="W94mFD7Sm96_-OhgsIUf-5">
          <mxGeometry x="515" y="10" width="78" height="78" as="geometry" />
        </mxCell>
        <mxCell id="W94mFD7Sm96_-OhgsIUf-13" value="rizedb" style="sketch=0;outlineConnect=0;fontColor=#232F3E;gradientColor=none;fillColor=#232F3D;strokeColor=none;dashed=0;verticalLabelPosition=bottom;verticalAlign=top;align=center;html=1;fontSize=12;fontStyle=0;aspect=fixed;pointerEvents=1;shape=mxgraph.aws4.generic_database;" vertex="1" parent="W94mFD7Sm96_-OhgsIUf-5">
          <mxGeometry x="574" y="50" width="45.39" height="60" as="geometry" />
        </mxCell>
        <mxCell id="W94mFD7Sm96_-OhgsIUf-14" value="pb5_sps_db" style="sketch=0;points=[[0,0,0],[0.25,0,0],[0.5,0,0],[0.75,0,0],[1,0,0],[0,1,0],[0.25,1,0],[0.5,1,0],[0.75,1,0],[1,1,0],[0,0.25,0],[0,0.5,0],[0,0.75,0],[1,0.25,0],[1,0.5,0],[1,0.75,0]];outlineConnect=0;fontColor=#232F3E;gradientColor=#4D72F3;gradientDirection=north;fillColor=#3334B9;strokeColor=#ffffff;dashed=0;verticalLabelPosition=bottom;verticalAlign=top;align=center;html=1;fontSize=12;fontStyle=0;aspect=fixed;shape=mxgraph.aws4.resourceIcon;resIcon=mxgraph.aws4.rds;" vertex="1" parent="W94mFD7Sm96_-OhgsIUf-5">
          <mxGeometry x="186" y="10" width="78" height="78" as="geometry" />
        </mxCell>
        <mxCell id="W94mFD7Sm96_-OhgsIUf-15" value="paintbrain_master_restore" style="sketch=0;points=[[0,0,0],[0.25,0,0],[0.5,0,0],[0.75,0,0],[1,0,0],[0,1,0],[0.25,1,0],[0.5,1,0],[0.75,1,0],[1,1,0],[0,0.25,0],[0,0.5,0],[0,0.75,0],[1,0.25,0],[1,0.5,0],[1,0.75,0]];outlineConnect=0;fontColor=#232F3E;gradientColor=#4D72F3;gradientDirection=north;fillColor=#3334B9;strokeColor=#ffffff;dashed=0;verticalLabelPosition=bottom;verticalAlign=top;align=center;html=1;fontSize=12;fontStyle=0;aspect=fixed;shape=mxgraph.aws4.resourceIcon;resIcon=mxgraph.aws4.rds;" vertex="1" parent="W94mFD7Sm96_-OhgsIUf-5">
          <mxGeometry x="186" y="130" width="78" height="78" as="geometry" />
        </mxCell>
        <mxCell id="W94mFD7Sm96_-OhgsIUf-11" value="" style="sketch=0;outlineConnect=0;fontColor=#232F3E;gradientColor=none;fillColor=#232F3D;strokeColor=none;dashed=0;verticalLabelPosition=bottom;verticalAlign=top;align=center;html=1;fontSize=12;fontStyle=0;aspect=fixed;pointerEvents=1;shape=mxgraph.aws4.generic_database;" vertex="1" parent="W94mFD7Sm96_-OhgsIUf-5">
          <mxGeometry x="574.01" y="300" width="45.38" height="60" as="geometry" />
        </mxCell>
        <mxCell id="W94mFD7Sm96_-OhgsIUf-22" style="edgeStyle=orthogonalEdgeStyle;rounded=0;orthogonalLoop=1;jettySize=auto;html=1;exitX=0;exitY=0.5;exitDx=0;exitDy=0;exitPerimeter=0;entryX=1;entryY=0.5;entryDx=0;entryDy=0;entryPerimeter=0;" edge="1" parent="W94mFD7Sm96_-OhgsIUf-5" source="W94mFD7Sm96_-OhgsIUf-10" target="W94mFD7Sm96_-OhgsIUf-7">
          <mxGeometry relative="1" as="geometry" />
        </mxCell>
        <mxCell id="W94mFD7Sm96_-OhgsIUf-10" value="protimes-potal" style="sketch=0;points=[[0,0,0],[0.25,0,0],[0.5,0,0],[0.75,0,0],[1,0,0],[0,1,0],[0.25,1,0],[0.5,1,0],[0.75,1,0],[1,1,0],[0,0.25,0],[0,0.5,0],[0,0.75,0],[1,0.25,0],[1,0.5,0],[1,0.75,0]];outlineConnect=0;fontColor=#232F3E;gradientColor=#F78E04;gradientDirection=north;fillColor=#D05C17;strokeColor=#ffffff;dashed=0;verticalLabelPosition=bottom;verticalAlign=top;align=center;html=1;fontSize=12;fontStyle=0;aspect=fixed;shape=mxgraph.aws4.resourceIcon;resIcon=mxgraph.aws4.ec2;" vertex="1" parent="W94mFD7Sm96_-OhgsIUf-5">
          <mxGeometry x="515" y="320" width="78" height="78" as="geometry" />
        </mxCell>
        <mxCell id="W94mFD7Sm96_-OhgsIUf-19" value="daily AM4:00" style="text;html=1;align=center;verticalAlign=middle;resizable=0;points=[];autosize=1;strokeColor=none;fillColor=none;" vertex="1" parent="W94mFD7Sm96_-OhgsIUf-5">
          <mxGeometry x="230" y="290" width="80" height="20" as="geometry" />
        </mxCell>
        <mxCell id="W94mFD7Sm96_-OhgsIUf-1" value="&lt;span style=&quot;color: rgb(0, 0, 0);&quot;&gt;protimes_BI&lt;/span&gt;" style="sketch=0;outlineConnect=0;fontColor=#232F3E;gradientColor=none;fillColor=#2E27AD;strokeColor=none;dashed=0;verticalLabelPosition=bottom;verticalAlign=top;align=center;html=1;fontSize=12;fontStyle=0;aspect=fixed;pointerEvents=1;shape=mxgraph.aws4.rds_sql_server_instance;" vertex="1" parent="W94mFD7Sm96_-OhgsIUf-5">
          <mxGeometry x="30" y="320" width="78" height="78" as="geometry" />
        </mxCell>
        <mxCell id="W94mFD7Sm96_-OhgsIUf-21" style="edgeStyle=orthogonalEdgeStyle;rounded=0;orthogonalLoop=1;jettySize=auto;html=1;entryX=0;entryY=0.5;entryDx=0;entryDy=0;entryPerimeter=0;" edge="1" parent="W94mFD7Sm96_-OhgsIUf-5" source="W94mFD7Sm96_-OhgsIUf-1" target="W94mFD7Sm96_-OhgsIUf-6">
          <mxGeometry relative="1" as="geometry">
            <mxPoint x="78.5" y="560.1201735415127" as="sourcePoint" />
            <mxPoint x="79" y="407.90153307251376" as="targetPoint" />
            <Array as="points" />
          </mxGeometry>
        </mxCell>
        <mxCell id="W94mFD7Sm96_-OhgsIUf-24" style="edgeStyle=orthogonalEdgeStyle;rounded=0;orthogonalLoop=1;jettySize=auto;html=1;exitX=0;exitY=0.5;exitDx=0;exitDy=0;exitPerimeter=0;" edge="1" parent="W94mFD7Sm96_-OhgsIUf-5" source="W94mFD7Sm96_-OhgsIUf-12" target="W94mFD7Sm96_-OhgsIUf-6">
          <mxGeometry relative="1" as="geometry">
            <mxPoint x="260" y="360" as="targetPoint" />
            <Array as="points">
              <mxPoint x="320" y="49" />
              <mxPoint x="320" y="360" />
            </Array>
          </mxGeometry>
        </mxCell>
        <mxCell id="W94mFD7Sm96_-OhgsIUf-3" value="BO-Access" style="sketch=0;outlineConnect=0;fontColor=#232F3E;gradientColor=none;fillColor=#232F3D;strokeColor=none;dashed=0;verticalLabelPosition=bottom;verticalAlign=top;align=center;html=1;fontSize=12;fontStyle=0;aspect=fixed;pointerEvents=1;shape=mxgraph.aws4.documents2;" vertex="1" parent="1">
          <mxGeometry x="105" y="620" width="67" height="78" as="geometry" />
        </mxCell>
        <mxCell id="W94mFD7Sm96_-OhgsIUf-20" style="edgeStyle=orthogonalEdgeStyle;rounded=0;orthogonalLoop=1;jettySize=auto;html=1;" edge="1" parent="1" source="W94mFD7Sm96_-OhgsIUf-3" target="W94mFD7Sm96_-OhgsIUf-1">
          <mxGeometry relative="1" as="geometry">
            <mxPoint x="305" y="400" as="sourcePoint" />
            <mxPoint x="305" y="288" as="targetPoint" />
          </mxGeometry>
        </mxCell>
        <mxCell id="W94mFD7Sm96_-OhgsIUf-28" value="mothers" style="sketch=0;outlineConnect=0;fontColor=#232F3E;gradientColor=none;fillColor=#232F3D;strokeColor=none;dashed=0;verticalLabelPosition=bottom;verticalAlign=top;align=center;html=1;fontSize=12;fontStyle=0;aspect=fixed;pointerEvents=1;shape=mxgraph.aws4.traditional_server;" vertex="1" parent="1">
          <mxGeometry x="329" y="1030" width="45" height="78" as="geometry" />
        </mxCell>
        <mxCell id="W94mFD7Sm96_-OhgsIUf-29" value="請求データ" style="sketch=0;outlineConnect=0;fontColor=#232F3E;gradientColor=none;fillColor=#232F3D;strokeColor=none;dashed=0;verticalLabelPosition=bottom;verticalAlign=top;align=center;html=1;fontSize=12;fontStyle=0;aspect=fixed;pointerEvents=1;shape=mxgraph.aws4.generic_database;" vertex="1" parent="1">
          <mxGeometry x="398.74" y="1049" width="30.26" height="40" as="geometry" />
        </mxCell>
        <mxCell id="W94mFD7Sm96_-OhgsIUf-30" value="EC-CUBE(管理機能のみ利用)" style="text;html=1;align=center;verticalAlign=middle;resizable=0;points=[];autosize=1;strokeColor=none;fillColor=none;" vertex="1" parent="1">
          <mxGeometry x="389" y="1020" width="170" height="20" as="geometry" />
        </mxCell>
        <mxCell id="W94mFD7Sm96_-OhgsIUf-36" style="edgeStyle=orthogonalEdgeStyle;rounded=0;orthogonalLoop=1;jettySize=auto;html=1;" edge="1" parent="1">
          <mxGeometry relative="1" as="geometry">
            <mxPoint x="298.5" y="1341.8365230009022" as="sourcePoint" />
            <mxPoint x="609.3352383607471" y="1374" as="targetPoint" />
            <Array as="points">
              <mxPoint x="299" y="1374" />
            </Array>
          </mxGeometry>
        </mxCell>
        <mxCell id="W94mFD7Sm96_-OhgsIUf-57" style="edgeStyle=orthogonalEdgeStyle;rounded=0;orthogonalLoop=1;jettySize=auto;html=1;" edge="1" parent="1" source="W94mFD7Sm96_-OhgsIUf-31" target="W94mFD7Sm96_-OhgsIUf-28">
          <mxGeometry relative="1" as="geometry">
            <Array as="points">
              <mxPoint x="299" y="1230" />
              <mxPoint x="352" y="1230" />
            </Array>
          </mxGeometry>
        </mxCell>
        <mxCell id="W94mFD7Sm96_-OhgsIUf-31" value="RIZE" style="sketch=0;outlineConnect=0;fontColor=#232F3E;gradientColor=none;fillColor=#232F3D;strokeColor=none;dashed=0;verticalLabelPosition=bottom;verticalAlign=top;align=center;html=1;fontSize=12;fontStyle=0;aspect=fixed;pointerEvents=1;shape=mxgraph.aws4.traditional_server;" vertex="1" parent="1">
          <mxGeometry x="276" y="1265" width="45" height="78" as="geometry" />
        </mxCell>
        <mxCell id="W94mFD7Sm96_-OhgsIUf-56" style="edgeStyle=orthogonalEdgeStyle;rounded=0;orthogonalLoop=1;jettySize=auto;html=1;entryX=1.178;entryY=0.32;entryDx=0;entryDy=0;entryPerimeter=0;" edge="1" parent="1" source="W94mFD7Sm96_-OhgsIUf-34" target="W94mFD7Sm96_-OhgsIUf-31">
          <mxGeometry relative="1" as="geometry">
            <Array as="points">
              <mxPoint x="648" y="1290" />
            </Array>
          </mxGeometry>
        </mxCell>
        <mxCell id="W94mFD7Sm96_-OhgsIUf-34" value="弥生" style="sketch=0;outlineConnect=0;fontColor=#232F3E;gradientColor=none;fillColor=#232F3D;strokeColor=none;dashed=0;verticalLabelPosition=bottom;verticalAlign=top;align=center;html=1;fontSize=12;fontStyle=0;aspect=fixed;pointerEvents=1;shape=mxgraph.aws4.client;" vertex="1" parent="1">
          <mxGeometry x="609" y="1337" width="78" height="76" as="geometry" />
        </mxCell>
        <mxCell id="W94mFD7Sm96_-OhgsIUf-35" value="2.PB売上データ&lt;br&gt;CSV連携" style="sketch=0;outlineConnect=0;fontColor=#232F3E;gradientColor=none;fillColor=#232F3D;strokeColor=none;dashed=0;verticalLabelPosition=bottom;verticalAlign=top;align=center;html=1;fontSize=12;fontStyle=0;aspect=fixed;pointerEvents=1;shape=mxgraph.aws4.generic_database;" vertex="1" parent="1">
          <mxGeometry x="429" y="1385" width="30.26" height="40" as="geometry" />
        </mxCell>
        <mxCell id="W94mFD7Sm96_-OhgsIUf-38" style="edgeStyle=orthogonalEdgeStyle;rounded=0;orthogonalLoop=1;jettySize=auto;html=1;" edge="1" parent="1" source="W94mFD7Sm96_-OhgsIUf-37" target="W94mFD7Sm96_-OhgsIUf-28">
          <mxGeometry relative="1" as="geometry" />
        </mxCell>
        <mxCell id="W94mFD7Sm96_-OhgsIUf-37" value="AP-ONLINE" style="sketch=0;outlineConnect=0;fontColor=#232F3E;gradientColor=none;fillColor=#232F3D;strokeColor=none;dashed=0;verticalLabelPosition=bottom;verticalAlign=top;align=center;html=1;fontSize=12;fontStyle=0;aspect=fixed;pointerEvents=1;shape=mxgraph.aws4.traditional_server;" vertex="1" parent="1">
          <mxGeometry x="199" y="1030" width="45" height="78" as="geometry" />
        </mxCell>
        <mxCell id="W94mFD7Sm96_-OhgsIUf-39" value="受注情報" style="text;html=1;align=center;verticalAlign=middle;resizable=0;points=[];autosize=1;strokeColor=none;fillColor=none;" vertex="1" parent="1">
          <mxGeometry x="259" y="1080" width="60" height="20" as="geometry" />
        </mxCell>
        <mxCell id="W94mFD7Sm96_-OhgsIUf-40" value="EC-CUBE&lt;br&gt;(EC機能のみ利用)" style="text;html=1;align=center;verticalAlign=middle;resizable=0;points=[];autosize=1;strokeColor=none;fillColor=none;" vertex="1" parent="1">
          <mxGeometry x="849" y="1460" width="110" height="30" as="geometry" />
        </mxCell>
        <mxCell id="W94mFD7Sm96_-OhgsIUf-47" style="edgeStyle=orthogonalEdgeStyle;rounded=0;orthogonalLoop=1;jettySize=auto;html=1;startArrow=none;" edge="1" parent="1" source="W94mFD7Sm96_-OhgsIUf-41" target="W94mFD7Sm96_-OhgsIUf-34">
          <mxGeometry relative="1" as="geometry">
            <mxPoint x="785.7" y="1375" as="sourcePoint" />
            <mxPoint x="709" y="1365" as="targetPoint" />
          </mxGeometry>
        </mxCell>
        <mxCell id="W94mFD7Sm96_-OhgsIUf-41" value="販促" style="sketch=0;outlineConnect=0;fontColor=#232F3E;gradientColor=none;fillColor=#232F3D;strokeColor=none;dashed=0;verticalLabelPosition=bottom;verticalAlign=top;align=center;html=1;fontSize=12;fontStyle=0;aspect=fixed;pointerEvents=1;shape=mxgraph.aws4.traditional_server;" vertex="1" parent="1">
          <mxGeometry x="869" y="1336" width="45" height="78" as="geometry" />
        </mxCell>
        <mxCell id="W94mFD7Sm96_-OhgsIUf-44" value="スクラッチEC" style="text;html=1;align=center;verticalAlign=middle;resizable=0;points=[];autosize=1;strokeColor=none;fillColor=none;" vertex="1" parent="1">
          <mxGeometry x="174" y="1010" width="90" height="20" as="geometry" />
        </mxCell>
        <mxCell id="W94mFD7Sm96_-OhgsIUf-48" value="" style="sketch=0;outlineConnect=0;fontColor=#232F3E;gradientColor=none;fillColor=#232F3D;strokeColor=none;dashed=0;verticalLabelPosition=bottom;verticalAlign=top;align=center;html=1;fontSize=12;fontStyle=0;aspect=fixed;pointerEvents=1;shape=mxgraph.aws4.user;" vertex="1" parent="1">
          <mxGeometry x="769" y="1325" width="40" height="40" as="geometry" />
        </mxCell>
        <mxCell id="W94mFD7Sm96_-OhgsIUf-49" value="請求情報登録&lt;br&gt;配送作業" style="text;html=1;align=center;verticalAlign=middle;resizable=0;points=[];autosize=1;strokeColor=none;fillColor=none;" vertex="1" parent="1">
          <mxGeometry x="699" y="1405" width="90" height="30" as="geometry" />
        </mxCell>
        <mxCell id="W94mFD7Sm96_-OhgsIUf-51" value="受注情報" style="text;html=1;align=center;verticalAlign=middle;resizable=0;points=[];autosize=1;strokeColor=none;fillColor=none;" vertex="1" parent="1">
          <mxGeometry x="799" y="1405" width="60" height="20" as="geometry" />
        </mxCell>
        <mxCell id="W94mFD7Sm96_-OhgsIUf-52" value="3.プロタイムズ&lt;br&gt;全売上データ" style="text;html=1;align=center;verticalAlign=middle;resizable=0;points=[];autosize=1;strokeColor=none;fillColor=none;" vertex="1" parent="1">
          <mxGeometry x="494" y="1260" width="100" height="30" as="geometry" />
        </mxCell>
        <mxCell id="W94mFD7Sm96_-OhgsIUf-54" style="edgeStyle=orthogonalEdgeStyle;rounded=0;orthogonalLoop=1;jettySize=auto;html=1;" edge="1" parent="1" source="W94mFD7Sm96_-OhgsIUf-53" target="W94mFD7Sm96_-OhgsIUf-31">
          <mxGeometry relative="1" as="geometry" />
        </mxCell>
        <mxCell id="W94mFD7Sm96_-OhgsIUf-53" value="PB" style="sketch=0;outlineConnect=0;fontColor=#232F3E;gradientColor=none;fillColor=#232F3D;strokeColor=none;dashed=0;verticalLabelPosition=bottom;verticalAlign=top;align=center;html=1;fontSize=12;fontStyle=0;aspect=fixed;pointerEvents=1;shape=mxgraph.aws4.traditional_server;" vertex="1" parent="1">
          <mxGeometry x="77" y="1265" width="45" height="78" as="geometry" />
        </mxCell>
        <mxCell id="W94mFD7Sm96_-OhgsIUf-55" value="1.完工/月額データ" style="text;html=1;align=center;verticalAlign=middle;resizable=0;points=[];autosize=1;strokeColor=none;fillColor=none;" vertex="1" parent="1">
          <mxGeometry x="140" y="1311" width="110" height="20" as="geometry" />
        </mxCell>
        <mxCell id="W94mFD7Sm96_-OhgsIUf-58" value="4.プロタイムズ全請求データ" style="text;html=1;align=center;verticalAlign=middle;resizable=0;points=[];autosize=1;strokeColor=none;fillColor=none;" vertex="1" parent="1">
          <mxGeometry x="284" y="1190" width="170" height="20" as="geometry" />
        </mxCell>
      </root>
    </mxGraphModel>
  </diagram>
</mxfile>
